<svg width="286" height="161" viewBox="0 0 286 161" fill="none" xmlns="http://www.w3.org/2000/svg">
<path d="M27.7578 7.93092C27.7578 3.55079 31.3086 0 35.6887 0H250.956C255.337 0 258.887 3.55079 258.887 7.93091V155.786C258.887 156.412 258.38 156.919 257.754 156.919H28.8908C28.2651 156.919 27.7578 156.412 27.7578 155.786V7.93092Z" fill="#1A202C"/>
<path d="M29.174 7.64767C29.174 4.20615 31.964 1.41623 35.4055 1.41623H251.24C254.681 1.41623 257.471 4.20614 257.471 7.64767V150.971H29.174V7.64767Z" fill="black"/>
<rect x="35.1221" y="9.34717" width="215.551" height="135.392" fill="white"/>
<path d="M0 156.352C0 156.04 0.253628 155.786 0.566494 155.786H284.946C285.259 155.786 285.513 156.04 285.513 156.352V157.485H0V156.352Z" fill="#A3ACB1"/>
<path d="M0 156.352C0 156.04 0.253628 155.786 0.566494 155.786H284.946C285.259 155.786 285.513 156.04 285.513 156.352V157.485H0V156.352Z" fill="url(#paint0_linear_235_559)"/>
<path d="M0 157.485H285.513L279.748 158.648C272.374 160.135 264.871 160.884 257.349 160.884H27.7324C19.4659 160.884 11.2241 159.98 3.15444 158.186L0 157.485Z" fill="#647279"/>
<path d="M0 157.485H285.513L279.748 158.648C272.374 160.135 264.871 160.884 257.349 160.884H27.7324C19.4659 160.884 11.2241 159.98 3.15444 158.186L0 157.485Z" fill="url(#paint1_linear_235_559)"/>
<path fill-rule="evenodd" clip-rule="evenodd" d="M121.805 155.786C121.951 156.735 121.244 157.485 123.496 157.485H162.3C164.552 157.485 163.845 156.735 163.991 155.786H121.805Z" fill="#96A1A8"/>
<path fill-rule="evenodd" clip-rule="evenodd" d="M121.805 155.786C121.951 156.735 121.244 157.485 123.496 157.485H162.3C164.552 157.485 163.845 156.735 163.991 155.786H121.805Z" fill="url(#paint2_linear_235_559)"/>
<defs>
<linearGradient id="paint0_linear_235_559" x1="0" y1="158.335" x2="285.513" y2="158.335" gradientUnits="userSpaceOnUse">
<stop stop-color="#0D1012"/>
<stop offset="0.0295345" stop-color="#CAD4DB"/>
<stop offset="0.0625" stop-color="#242729"/>
<stop offset="0.133609" stop-color="#A3ACB1"/>
<stop offset="0.865967" stop-color="#A3ACB1"/>
<stop offset="0.941937" stop-color="#242729"/>
<stop offset="0.971275" stop-color="#CAD4DB"/>
<stop offset="0.996436" stop-color="#0D1012"/>
</linearGradient>
<linearGradient id="paint1_linear_235_559" x1="142.756" y1="155.786" x2="142.756" y2="160.884" gradientUnits="userSpaceOnUse">
<stop stop-color="#7A7F83"/>
<stop offset="1" stop-color="#0B0B0E"/>
</linearGradient>
<linearGradient id="paint2_linear_235_559" x1="123.921" y1="156.818" x2="162.726" y2="156.818" gradientUnits="userSpaceOnUse">
<stop stop-color="#3C3C3C"/>
<stop offset="0.317518" stop-color="#3C3C3C" stop-opacity="0"/>
<stop offset="0.660584" stop-color="#3C3C3C" stop-opacity="0"/>
<stop offset="1" stop-color="#444444"/>
</linearGradient>
</defs>
</svg>
