<svg width="42" height="43" viewBox="0 0 42 43" fill="none" xmlns="http://www.w3.org/2000/svg">
<path fill-rule="evenodd" clip-rule="evenodd" d="M42 21.5C42 33.0979 32.5979 42.5 21 42.5C9.40201 42.5 0 33.0979 0 21.5C0 9.90201 9.40201 0.5 21 0.5C32.5979 0.5 42 9.90201 42 21.5ZM10.5105 15.2C10.5105 14.045 11.445 13.1 12.6 13.1H29.4C30.555 13.1 31.5 14.045 31.5 15.2V27.8C31.5 28.955 30.555 29.9 29.4 29.9H12.6C11.445 29.9 10.5 28.955 10.5 27.8L10.5105 15.2ZM21 22.55L12.6 17.2999V27.8H29.4V17.2999L21 22.55ZM21 20.45L12.6 15.2H29.4L21 20.45Z" fill="black"/>
</svg>
