<svg width="42" height="43" viewBox="0 0 42 43" fill="none" xmlns="http://www.w3.org/2000/svg">
<g clip-path="url(#clip0_230_330)">
<path d="M21 1.375C9.3975 1.375 0 10.615 0 22.011C0 31.1303 6.0165 38.8635 14.3587 41.59C15.4087 41.7843 15.7937 41.1455 15.7937 40.5978C15.7937 40.1078 15.7763 38.8093 15.7675 37.089C9.926 38.3333 8.694 34.3205 8.694 34.3205C7.7385 31.9388 6.35775 31.3018 6.35775 31.3018C4.4555 30.0225 6.50475 30.0488 6.50475 30.0488C8.6135 30.1923 9.72125 32.175 9.72125 32.175C11.5938 35.3303 14.637 34.4185 15.8375 33.8918C16.0265 32.5565 16.5673 31.6483 17.1675 31.132C12.5038 30.6158 7.602 28.8413 7.602 20.9348C7.602 18.6825 8.41575 16.8415 9.76325 15.3977C9.527 14.8763 8.81825 12.778 9.947 9.936C9.947 9.936 11.7058 9.383 15.722 12.0518C17.402 11.5933 19.187 11.3658 20.972 11.3553C22.757 11.3658 24.542 11.5933 26.222 12.0518C30.212 9.383 31.9707 9.936 31.9707 9.936C33.0995 12.778 32.3908 14.8763 32.1807 15.3977C33.5195 16.8415 34.3332 18.6825 34.3332 20.9348C34.3332 28.8623 29.4245 30.607 24.752 31.1145C25.487 31.734 26.1695 32.9993 26.1695 34.933C26.1695 37.6945 26.1432 39.9135 26.1432 40.5838C26.1432 41.1245 26.5107 41.7703 27.587 41.5638C35.9888 38.8548 42 31.1163 42 22.011C42 10.615 32.5972 1.375 21 1.375Z" fill="#212121"/>
</g>
<defs>
<clipPath id="clip0_230_330">
<rect width="42" height="42" fill="white" transform="translate(0 0.5)"/>
</clipPath>
</defs>
</svg>
