<svg width="42" height="43" viewBox="0 0 42 43" fill="none" xmlns="http://www.w3.org/2000/svg">
<g clip-path="url(#clip0_230_335)">
<path d="M21 42.5C32.598 42.5 42 33.098 42 21.5C42 9.90202 32.598 0.5 21 0.5C9.40202 0.5 0 9.90202 0 21.5C0 33.098 9.40202 42.5 21 42.5Z" fill="#039BE5"/>
<path d="M9.60898 21.0449L29.8565 13.2381C30.7962 12.8986 31.617 13.4674 31.3125 14.8884L31.3142 14.8866L27.8667 31.1284C27.6112 32.2799 26.927 32.5599 25.9697 32.0174L20.7197 28.1481L18.1875 30.5876C17.9075 30.8676 17.6712 31.1039 17.1287 31.1039L17.5015 25.7611L27.2315 16.9709C27.655 16.5981 27.137 16.3881 26.5787 16.7591L14.5545 24.3296L9.37098 22.7126C8.24573 22.3556 8.22123 21.5874 9.60898 21.0449Z" fill="white"/>
</g>
<defs>
<clipPath id="clip0_230_335">
<rect width="42" height="42" fill="white" transform="translate(0 0.5)"/>
</clipPath>
</defs>
</svg>
