<svg width="18" height="18" viewBox="0 0 18 18" fill="none" xmlns="http://www.w3.org/2000/svg">
<path d="M13.2424 11.1215L12.1818 10.0609L13.2424 9.00023C14.414 7.82866 14.414 5.92916 13.2424 4.75759C12.0708 3.58602 10.1713 3.58602 8.99973 4.75759L7.93908 5.81825L6.87842 4.75759L7.93908 3.69693C9.6964 1.93957 12.5457 1.93957 14.3031 3.69693C16.0604 5.45429 16.0604 8.30356 14.3031 10.0609L13.2424 11.1215ZM11.121 13.2429L10.0604 14.3036C8.30305 16.0609 5.45379 16.0609 3.69644 14.3036C1.93908 12.5462 1.93908 9.69691 3.69644 7.93958L4.7571 6.87891L5.81775 7.93958L4.7571 9.00023C3.58552 10.1718 3.58552 12.0713 4.7571 13.2429C5.92867 14.4144 7.82815 14.4144 8.99973 13.2429L10.0604 12.1822L11.121 13.2429ZM11.121 5.81825L12.1818 6.87891L6.87842 12.1822L5.81775 11.1215L11.121 5.81825Z" fill="black"/>
</svg>
